<svg xmlns="http://www.w3.org/2000/svg" height="1200" width="1600" version="1.1" xmlns:xlink="http://www.w3.org/1999/xlink" xmlns:svgjs="http://svgjs.com/svgjs"><rect fill="#f3ebe900" width="1600" height="1200"></rect><g><path d="M494.61 575.58V575.4C490.8 569.59 489.35 564.51 490.8 559.98 492.61 553.99 498.24 550.9 499.87 550 499.87 550 500.05 549.82 499.87 549.82 497.15 544.55 497.15 540.2 498.78 536.39 501.87 530.4 509.13 528.4 510.94 528.04 510.94 528.04 511.12 528.04 511.12 527.86 511.48 516.61 518.38 510.8 531.26 510.8 536.34 510.8 542.69 511.71 548.32 513.71 548.5 513.71 548.5 513.71 548.5 513.52 551.77 494.65 557.39 484.49 564.65 484.49 576.08 483.95 576.45 519.69 582.61 530.22 599.67 569.41 595.68 593 595.32 595.54 595.32 595.54 595.32 595.54 595.32 595.72L619.45 634.01C619.63 634.37 619.63 634.74 619.27 634.92 612.01 639.09 538.7 681.01 534.53 683.37 534.35 683.37 534.35 683.37 534.35 683.19 528.54 665.4 518.02 634.37 511.67 615.68 511.67 615.68 511.67 615.68 511.67 615.5 496.42 606.97 488.98 597.9 488.26 589.37 487.71 581.93 493.16 576.85 494.61 575.58Z" fill="#cf5934" opacity="1" stroke-width="4" stroke="none"></path><path d="M889.82 399.03C938.09 399.75 974.2 330.98 936.45 299.22 913.59 281.08 880.57 291.42 862.24 314.1 834.11 347.49 846.82 398.66 889.82 399.03Z" fill="#010005" opacity="1" stroke-width="4" stroke="none"></path><path d="M879.66 565.24L877.3 557.26C878.21 543.28 875.12 545.64 876.03 532.03 878.57 491.75 880.93 456.91 881.29 439.67 882.92 398.48 845.54 364.19 803.27 366.36 768.61 366.36 746.83 369.45 730.5 391.4 715.62 411.18 717.8 449.65 712.9 473.97 708.36 493.56 705.46 515.88 718.16 532.4 731.59 548.18 752.09 552.36 768.61 548.55V565.42C782.04 565.42 868.41 565.42 879.66 565.24Z" fill="#cf5934" opacity="1" stroke-width="4" stroke="none"></path><path d="M800 535.3C792.2 539.84 777.14 545.46 768.61 548.55" stroke="#030202" stroke-width="4" stroke-linecap="round" stroke-linejoin="round" opacity="1" fill="none"></path><path d="M837.56 485.04L823.23 490.66" stroke="#030202" stroke-width="4" stroke-linecap="round" stroke-linejoin="round" opacity="1" fill="none"></path><path d="M750.64 478.68L750.28 478.32C748.47 476.69 747.92 474.33 748.65 471.97L749.74 467.98" stroke="#030202" stroke-width="4" stroke-linecap="round" stroke-linejoin="round" opacity="1" fill="none"></path><path d="M761.53 492.48C756.63 498.46 748.28 498.28 745.74 496.29" stroke="#030202" stroke-width="4" stroke-linecap="round" stroke-linejoin="round" opacity="1" fill="none"></path><path d="M774.05 455.46C767.88 455.46 767.88 464.89 774.05 464.89 780.22 464.89 780.22 455.46 774.05 455.46Z" fill="#010005" opacity="1" stroke-width="4" stroke="none"></path><path d="M733.95 449.47C727.78 449.47 727.78 458.91 733.95 458.91 740.12 458.91 740.12 449.47 733.95 449.47Z" fill="#010005" opacity="1" stroke-width="4" stroke="none"></path><path d="M946.8 882.42C1137.33 885.69 997.79 663.04 976.56 638 940.26 587.01 886.55 579.57 878.93 578.85 879.11 575.04 879.3 568.69 879.66 564.69H768.61L768.43 578.49C768.43 578.67 768.43 578.67 768.24 578.67 762.44 578.67 698.2 582.84 648.3 677.92 648.12 678.47 647.39 678.47 647.21 677.92L619.63 633.47H619.45L534.35 682.1C562.84 771.37 601.67 815.65 651.39 815.29 688.59 815.29 720.7 776.45 724.88 771.19L741.57 835.61H864.6L862.42 871.36C893.63 879.34 922.48 882.24 946.8 882.42Z" fill="#61ccff" opacity="1" stroke-width="4" stroke="none"></path><path d="M927.38 780.63C922.3 767.38 907.78 733.45 903.97 724.74 903.79 724.38 903.25 724.56 903.43 724.92 905.24 755.22 885.83 777 880.57 782.26 880.02 782.81 880.38 783.53 881.11 783.53 893.45 783.53 915.22 783.71 925.2 783.89 926.66 784.26 927.93 782.44 927.38 780.63Z" fill="#686868" opacity="0.2" stroke-width="4" stroke="none"></path><path d="M724.88 922.89C730.5 922.89 751.19 906.2 770.6 879.88 804.54 874.44 825.77 863.73 827.58 862.83 839.92 866.27 860.24 871.17 862.78 871.9 862.96 871.9 862.96 871.9 862.96 871.72 862.6 871.72 869.13 782.62 868.05 783.35 830.85 783.71 779.49 786.8 747.2 799.14 723.24 808.21 675.7 846.31 666.63 872.44 664.63 878.25 664.63 882.97 666.81 886.78 665.18 891.68 665.54 895.85 667.54 898.76 669.35 901.3 672.62 902.75 676.97 902.75 680.06 906.74 684.05 908.74 689.13 908.74 701.11 908.74 716.53 897.85 728.69 889.14 729.96 888.23 733.95 884.96 733.95 885.69 723.61 901.11 713.63 920.35 724.88 922.89Z" fill="#cf5934" opacity="1" stroke-width="4" stroke="none"></path><path d="M693.12 800.77C704.73 792.79 715.99 782.62 724.7 771.37V771.19C724.15 768.83 710.54 712.22 709.45 707.86 709.45 707.68 709.27 707.68 709.09 707.68 702.01 713.31 702.01 725.65 701.83 742.16 701.83 760.12 702.38 760.49 698.75 782.08 698.75 782.08 694.21 795.87 692.4 800.41 692.58 800.77 692.94 800.95 693.12 800.77Z" fill="#686868" opacity="0.2" stroke-width="4" stroke="none"></path><path d="M928.65 784.26C905.79 782.81 887.1 783.35 868.41 783.35" stroke="#686868" stroke-width="4" stroke-linecap="round" stroke-linejoin="round" opacity="1" fill="none"></path><path d="M928.83 783.89L903.25 723.47" stroke="#686868" stroke-width="4" stroke-linecap="round" stroke-linejoin="round" opacity="1" fill="none"></path><path d="M723.06 836.7C704.55 849.58 678.24 873.9 666.81 886.78" stroke="#030202" stroke-width="4" stroke-linecap="round" stroke-linejoin="round" opacity="1" fill="none"></path><path d="M737.4 853.94C714.53 869.72 685.5 894.22 676.97 902.75" stroke="#030202" stroke-width="4" stroke-linecap="round" stroke-linejoin="round" opacity="1" fill="none"></path><path d="M751.73 870.99L734.31 885.15" stroke="#030202" stroke-width="4" stroke-linecap="round" stroke-linejoin="round" opacity="1" fill="none"></path><path d="M1021.92 714.94C1021.92 714.94 1022.1 715.12 1022.1 714.94 1094.32 687.54 1097.22 584.11 1034.8 552.17 1019.38 544.01 1004.86 542.19 1001.96 542.01 1001.78 542.01 1001.78 541.83 1001.78 541.83 1006.13 479.23 943.71 444.93 885.65 475.96 885.47 475.96 885.28 475.96 885.47 475.78 886.74 456.73 887.64 441.49 887.82 430.24 889.64 391.95 856.07 358.38 817.78 357.11 776.05 355.66 742.3 368.18 726.33 398.48V398.66C727.6 399.93 740.84 412.45 788.93 396.67 789.11 396.67 789.29 396.85 789.11 396.85 774.6 420.44 794.19 433.5 822.32 429.15 822.5 429.15 822.5 429.33 822.5 429.33 818.14 439.67 815.97 449.47 818.69 462.9V463.26L819.05 463.08C822.86 461.26 858.25 450.2 864.42 471.43 871.13 492.29 834.66 514.25 833.02 515.52 833.02 515.52 833.02 515.52 833.02 515.7 832.66 518.61 823.59 614.96 924.48 634.19 924.66 634.19 924.84 634.19 925.02 634.19 935.73 636.01 946.43 637.1 957.32 637.28 962.77 638 970.21 635.83 974.92 637.82 996.52 664.13 1020.47 712.04 1021.92 714.94Z" fill="#010005" opacity="1" stroke-width="4" stroke="none"></path><path d="M724.88 771.37L709.45 707.86" stroke="#686868" stroke-width="4" stroke-linecap="round" stroke-linejoin="round" opacity="1" fill="none"></path><path d="M647.76 679.01L635.6 659.05" stroke="#686868" stroke-width="4" stroke-linecap="round" stroke-linejoin="round" opacity="1" fill="none"></path><path d="M768.43 578.67C768.43 578.67 757.9 578.67 746.11 583.02" stroke="#686868" stroke-width="4" stroke-linecap="round" stroke-linejoin="round" opacity="1" fill="none"></path><path d="M799.64 535.48C785.3 543.1 772.06 547.28 769.15 548.18 768.79 548.36 768.61 548.55 768.61 548.91L768.43 577.94C768.43 578.67 769.33 579.03 769.88 578.49L800.73 536.75C801.27 535.84 800.54 534.94 799.64 535.48Z" fill="#030202" opacity="0.2" stroke-width="4" stroke="none"></path><path d="M515.66 597.72C523.1 596.99 533.98 592.82 528.36 579.76 534.53 580.84 546.14 581.57 551.04 574.86 553.94 571.05 554.13 565.24 551.95 557.98 553.76 557.62 561.02 555.8 563.38 550 565.2 545.82 563.74 540.38 559.21 534.21 565.2 527.68 564.11 517.33 548.68 513.71" stroke="#030202" stroke-width="4" stroke-linecap="round" stroke-linejoin="round" opacity="1" fill="none"></path><path d="M511.48 527.86C527.45 527.86 543.6 528.95 558.84 533.85" stroke="#030202" stroke-width="4" stroke-linecap="round" stroke-linejoin="round" opacity="1" fill="none"></path><path d="M500.05 549.82C532.53 549.27 551.59 557.44 551.59 557.44" stroke="#000000" stroke-width="4" stroke-linecap="round" stroke-linejoin="round" opacity="1" fill="none"></path><path d="M494.61 575.4C511.48 573.22 528.36 579.76 528.36 579.76" stroke="#030202" stroke-width="4" stroke-linecap="round" stroke-linejoin="round" opacity="1" fill="none"></path></g><g><path d="M421.72 820.09C397.28 820.09 372.04 800.2 365.45 775.76L319.37 603.78C316.11 591.6 317.88 580.23 324.37 571.77 330.54 563.72 340.32 559.29 351.91 559.29H627.99C652.44 559.29 677.68 579.24 684.25 603.76L730.33 775.6C733.54 787.82 731.71 799.21 725.18 807.68 719.01 815.68 709.28 820.09 697.79 820.09H421.72Z" fill="#fe4f32" opacity="1" stroke-width="4" stroke="none"></path><path d="M571.62 820.09C571.52 819.51 571.46 818.92 571.44 818.33 571.41 817.75 571.37 817.17 571.31 816.62 569.53 798.87 557.98 784.43 545.56 784.43 543.23 784.45 540.93 784.97 538.81 785.96 536.7 786.94 534.82 788.37 533.3 790.14 527.83 796.14 525.15 806.03 526.13 816.62L526.54 820.04 495.64 820.09 488.74 748.74 595.76 748.69 602.79 820.09H571.62Z" fill="#000000" opacity="0.3" stroke-width="4" stroke="none"></path><path d="M454.5 874.94L488.2 748.72 595.35 748.69 561.5 874.94H454.5ZM531.98 784.43C519.62 784.43 505.67 798.87 500.89 816.63 498.02 827.3 499.05 837.26 503.65 843.27 504.94 845.02 506.63 846.43 508.58 847.4 510.52 848.36 512.67 848.84 514.84 848.81 527.28 848.81 541.29 834.36 546.07 816.61 548.87 805.9 547.78 795.93 543.16 789.94 541.86 788.2 540.18 786.79 538.23 785.83 536.29 784.88 534.15 784.39 531.98 784.43Z" fill="#ffc930" opacity="1" stroke-width="4" stroke="none"></path><path d="M477.54 625.03L484.26 650.26" stroke="#000000" stroke-width="4" stroke-linecap="round" stroke-linejoin="round" opacity="1" fill="none"></path><path d="M509.08 625.03L515.8 650.26" stroke="#000000" stroke-width="4" stroke-linecap="round" stroke-linejoin="round" opacity="1" fill="none"></path><path d="M540.62 625.03L547.34 650.26" stroke="#000000" stroke-width="4" stroke-linecap="round" stroke-linejoin="round" opacity="1" fill="none"></path><path d="M610.16 874.94C610.15 872.42 610.64 869.91 611.6 867.58 612.56 865.24 613.97 863.11 615.76 861.32 617.54 859.53 619.66 858.11 621.99 857.14 624.33 856.17 626.83 855.67 629.36 855.67H858.39C863.49 855.67 868.38 857.7 871.99 861.31 875.6 864.91 877.62 869.81 877.63 874.91V874.94H610.16Z" fill="#fe4f32" opacity="1" stroke-width="4" stroke="none"></path><path d="M787.08 874.94C787.07 872.42 787.56 869.91 788.52 867.58 789.48 865.24 790.89 863.11 792.68 861.32 794.46 859.53 796.58 858.11 798.91 857.14 801.25 856.17 803.75 855.67 806.28 855.67H858.39C863.49 855.67 868.38 857.7 871.99 861.31 875.6 864.91 877.62 869.81 877.63 874.91V874.94H787.08Z" fill="#ffc930" opacity="1" stroke-width="4" stroke="none"></path></g><g><path d="M1197.42 231.27H1068.83C1045.75 231.27 1027.08 249.94 1027.08 273.02V357.98C1027.08 381.05 1045.75 399.72 1068.83 399.72H1074.91V423.99C1074.91 426.36 1076.8 428.25 1079.18 428.25 1080.01 428.25 1080.85 427.97 1081.55 427.48L1122.18 399.72H1197.35C1220.42 399.72 1239.09 381.05 1239.16 357.98V273.02C1239.16 249.94 1220.49 231.27 1197.42 231.27Z" fill="#ffffff" opacity="1" stroke-width="4" stroke="none"></path><path d="M1074.91 411.82L1115.75 404.13 1122.18 399.72H1074.91V411.82Z" fill="#676767" opacity="0.2" stroke-width="4" stroke="none"></path><path d="M1174.13 328.61C1181.36 328.61 1187.21 322.75 1187.21 315.53 1187.21 308.31 1181.36 302.46 1174.13 302.46 1166.91 302.46 1161.06 308.31 1161.06 315.53 1161.06 322.75 1166.91 328.61 1174.13 328.61Z" fill="#ffffff" opacity="1" stroke-width="4" stroke="none"></path><path d="M1133.09 328.61C1140.31 328.61 1146.16 322.75 1146.16 315.53 1146.16 308.31 1140.31 302.46 1133.09 302.46 1125.86 302.46 1120.01 308.31 1120.01 315.53 1120.01 322.75 1125.86 328.61 1133.09 328.61Z" fill="#ffffff" opacity="1" stroke-width="4" stroke="none"></path><path d="M1092.11 328.61C1099.33 328.61 1105.19 322.75 1105.19 315.53 1105.19 308.31 1099.33 302.46 1092.11 302.46 1084.89 302.46 1079.04 308.31 1079.04 315.53 1079.04 322.75 1084.89 328.61 1092.11 328.61Z" fill="#ffffff" opacity="1" stroke-width="4" stroke="none"></path></g><g><path d="M374.22 177.67V310.22" stroke="#18709a" stroke-width="4" stroke-linecap="round" stroke-linejoin="round" opacity="1" fill="none"></path><path d="M397.91 414.77C404.74 401.75 399.71 385.66 386.69 378.83 373.66 372.01 357.58 377.03 350.75 390.06 343.92 403.08 348.95 419.18 361.98 426 375 432.82 391.09 427.79 397.91 414.77Z" fill="#ffffff" opacity="1" stroke-width="4" stroke="none"></path><path d="M436.93 369.86L419.95 360.59C408.17 354.19 399.82 343.06 396.95 329.98L394.35 318.2C391.94 307.16 380.99 300.11 369.95 302.61 362.16 304.38 356.04 310.41 354.37 318.2L351.77 329.98C348.9 343.06 340.46 354.19 328.77 360.59L311.79 369.86C299.36 376.64 290.92 388.88 289.16 402.89H459.74C457.8 388.88 449.36 376.64 436.93 369.86Z" fill="#61ccff" opacity="1" stroke-width="4" stroke="none"></path><path d="M302.61 376.36H445.62" stroke="#18709a" stroke-width="4" stroke-linecap="round" stroke-linejoin="round" opacity="1" fill="none"></path><path d="M369.86 302.52C362.07 304.28 355.95 310.31 354.28 318.1L351.68 329.89C348.8 342.96 340.36 354.1 328.67 360.5L311.7 369.77C299.27 376.54 290.83 388.79 289.07 402.79H338.14C338.14 370.61 374.87 368.94 374.87 339.81 374.87 319.31 374.41 301.96 374.41 301.96 372.83 302.06 371.34 302.24 369.86 302.52Z" fill="#18709a" opacity="0.3" stroke-width="4" stroke="none"></path></g><g><path d="M1247.3 873.8C1281.88 874.53 1310.12 846.46 1310.12 812.25V752.69C1310.12 752.51 1310.12 752.51 1309.94 752.51H1187.19C1187.01 752.51 1187.01 752.51 1187.01 752.69V811.16C1187.01 844.84 1213.63 873.08 1247.3 873.8Z" fill="#ffc930" opacity="1" stroke-width="4" stroke="none"></path><path d="M1248.57 785.09C1287.85 785.09 1307.95 755.95 1309.94 752.87 1309.94 752.69 1309.94 752.51 1309.76 752.51H1187.37C1187.19 752.51 1187.19 752.69 1187.19 752.87 1189.18 755.95 1209.28 785.09 1248.57 785.09Z" fill="#61ccff" opacity="1" stroke-width="4" stroke="none"></path><path d="M1332.75 823.11C1320.26 823.11 1310.12 812.97 1310.12 800.48 1310.12 787.99 1320.26 777.85 1332.75 777.85 1345.24 777.85 1355.38 787.99 1355.38 800.48 1355.38 812.97 1345.24 823.11 1332.75 823.11Z" stroke="#ffc930" stroke-width="4" stroke-linecap="round" stroke-linejoin="round" opacity="1" fill="none"></path></g><g><path d="M1100.61 290.56H1167.15C1182.45 290.56 1194.84 302.94 1194.84 318.25V319.48C1194.84 334.78 1182.45 347.17 1167.15 347.17H1100.61C1085.31 347.17 1072.93 334.78 1072.93 319.48V318.25C1072.93 302.94 1085.31 290.56 1100.61 290.56Z" fill="#fe4f32" opacity="1" stroke-width="4" stroke="none"></path><path d="M1112.77 322.55C1117.31 322.55 1121 318.87 1121 314.32 1121 309.78 1117.31 306.09 1112.77 306.09 1108.22 306.09 1104.54 309.78 1104.54 314.32 1104.54 318.87 1108.22 322.55 1112.77 322.55Z" stroke="#ffffff" stroke-width="4" stroke-linecap="round" stroke-linejoin="round" opacity="1" fill="none"></path><path d="M1119.38 319.32L1109.46 331.71" stroke="#ffffff" stroke-width="4" stroke-linecap="round" stroke-linejoin="round" opacity="1" fill="none"></path><path d="M1138.38 322.55C1142.93 322.55 1146.61 318.87 1146.61 314.32 1146.61 309.78 1142.93 306.09 1138.38 306.09 1133.84 306.09 1130.15 309.78 1130.15 314.32 1130.15 318.87 1133.84 322.55 1138.38 322.55Z" stroke="#ffffff" stroke-width="4" stroke-linecap="round" stroke-linejoin="round" opacity="1" fill="none"></path><path d="M1145 319.32L1135.07 331.71" stroke="#ffffff" stroke-width="4" stroke-linecap="round" stroke-linejoin="round" opacity="1" fill="none"></path><path d="M1160.69 313.09V324.71" stroke="#ffffff" stroke-width="4" stroke-linecap="round" stroke-linejoin="round" opacity="1" fill="none"></path><path d="M1166.46 318.94H1154.92" stroke="#ffffff" stroke-width="4" stroke-linecap="round" stroke-linejoin="round" opacity="1" fill="none"></path></g><g><path d="M528.47 195.06C520.58 212.42 516.36 253.45 544.79 261.98 571.14 269.87 610.67 246.7 625.95 227.2 641.23 207.71 636.25 186.98 613.3 201.36 582.2 220.85 572 267.1 598.57 280.39 623.87 293.04 657.06 272.5 660.23 257.22 662.95 243.93 650.8 246.34 644.95 262.48 638.6 279.89 649.44 294.67 661.82 301.47 682.9 313.08 686.57 325.73 688.16 334.12" stroke="#ffffff" stroke-width="4" stroke-linecap="round" opacity="1" fill="none"></path></g><g><path d="M1378.2 921.46L780.58 993.36 221.8 921.46V874.15H1378.2V921.46Z" fill="#efdcd7" opacity="1" stroke-width="4" stroke="none"></path><path d="M1378.16 921.46H221.8V968.76H1378.16V921.46Z" fill="#ffffff" opacity="1" stroke-width="4" stroke="none"></path><path d="M1378.16 963.91H221.8V1011.22H1378.16V963.91Z" fill="#efdcd7" opacity="1" stroke-width="4" stroke="none"></path></g></svg>